<svg width="75" height="75" viewBox="0 0 75 75" fill="none" xmlns="http://www.w3.org/2000/svg">
<circle cx="37.5" cy="37.5" r="37.5" fill="#2F2F2F"/>
<path d="M50 34.9862V35.6807C50 36.256 49.5336 36.7223 48.9583 36.7223H48.6111L47.4777 44.6559C47.3311 45.6822 46.4521 46.4446 45.4154 46.4446H29.5846C28.5479 46.4446 27.6689 45.6822 27.5222 44.6559L26.3889 36.7223H26.0417C25.4664 36.7223 25 36.256 25 35.6807V34.9862C25 34.4109 25.4664 33.9446 26.0417 33.9446H28.9645L33.599 27.5721C34.0502 26.9518 34.9187 26.8146 35.5391 27.2658C36.1595 27.717 36.2967 28.5856 35.8455 29.2059L32.3992 33.9446H42.6008L39.1545 29.2059C38.7033 28.5856 38.8405 27.7169 39.4609 27.2657C40.0812 26.8146 40.9499 26.9517 41.401 27.5721L46.0355 33.9446H48.9583C49.5336 33.9446 50 34.4109 50 34.9862ZM38.5417 42.6251V37.764C38.5417 37.1887 38.0753 36.7223 37.5 36.7223C36.9247 36.7223 36.4583 37.1887 36.4583 37.764V42.6251C36.4583 43.2004 36.9247 43.6668 37.5 43.6668C38.0753 43.6668 38.5417 43.2004 38.5417 42.6251ZM43.4028 42.6251V37.764C43.4028 37.1887 42.9364 36.7223 42.3611 36.7223C41.7858 36.7223 41.3194 37.1887 41.3194 37.764V42.6251C41.3194 43.2004 41.7858 43.6668 42.3611 43.6668C42.9364 43.6668 43.4028 43.2004 43.4028 42.6251ZM33.6806 42.6251V37.764C33.6806 37.1887 33.2142 36.7223 32.6389 36.7223C32.0636 36.7223 31.5972 37.1887 31.5972 37.764V42.6251C31.5972 43.2004 32.0636 43.6668 32.6389 43.6668C33.2142 43.6668 33.6806 43.2004 33.6806 42.6251Z" fill="white"/>
</svg>
