<svg width="150" height="150" viewBox="0 0 150 150" fill="none" xmlns="http://www.w3.org/2000/svg">
<circle cx="75" cy="75" r="75" fill="white"/>
<circle cx="75" cy="75" r="60" fill="#F2F2F2"/>
<circle cx="75" cy="75" r="35" fill="#2F2F2F"/>
<path d="M83.895 73.3018L84.979 74.3857C85.438 74.8447 85.438 75.5869 84.979 76.041L75.4917 85.5332C75.0327 85.9922 74.2905 85.9922 73.8364 85.5332L64.3442 76.041C63.8853 75.582 63.8853 74.8398 64.3442 74.3857L65.4282 73.3018C65.8921 72.8379 66.6489 72.8477 67.103 73.3213L72.7085 79.2051V65.1719C72.7085 64.5225 73.231 64 73.8804 64H75.4429C76.0923 64 76.6147 64.5225 76.6147 65.1719V79.2051L82.2202 73.3213C82.6743 72.8428 83.4312 72.833 83.895 73.3018Z" fill="white"/>
</svg>
