<svg width="218" height="26" viewBox="0 0 218 26" fill="none" xmlns="http://www.w3.org/2000/svg">
<path d="M0.0227273 1.72727H6.09091L12.5 17.3636H12.7727L19.1818 1.72727H25.25V25H20.4773V9.85227H20.2841L14.2614 24.8864H11.0114L4.98864 9.79545H4.79545V25H0.0227273V1.72727ZM29.2131 25V7.54545H34.054V25H29.2131ZM31.6449 5.29545C30.9252 5.29545 30.3078 5.05682 29.7926 4.57954C29.285 4.0947 29.0312 3.51515 29.0312 2.84091C29.0312 2.17424 29.285 1.60227 29.7926 1.125C30.3078 0.640151 30.9252 0.397726 31.6449 0.397726C32.3646 0.397726 32.9782 0.640151 33.4858 1.125C34.0009 1.60227 34.2585 2.17424 34.2585 2.84091C34.2585 3.51515 34.0009 4.0947 33.4858 4.57954C32.9782 5.05682 32.3646 5.29545 31.6449 5.29545ZM42.9091 25.3295C41.7955 25.3295 40.803 25.1364 39.9318 24.75C39.0606 24.3561 38.3712 23.7765 37.8636 23.0114C37.3636 22.2386 37.1136 21.2765 37.1136 20.125C37.1136 19.1553 37.2917 18.3409 37.6477 17.6818C38.0038 17.0227 38.4886 16.4924 39.1023 16.0909C39.7159 15.6894 40.4129 15.3864 41.1932 15.1818C41.9811 14.9773 42.8068 14.8333 43.6705 14.75C44.6856 14.6439 45.5038 14.5455 46.125 14.4545C46.7462 14.3561 47.197 14.2121 47.4773 14.0227C47.7576 13.8333 47.8977 13.553 47.8977 13.1818V13.1136C47.8977 12.3939 47.6705 11.8371 47.2159 11.4432C46.7689 11.0492 46.1326 10.8523 45.3068 10.8523C44.4356 10.8523 43.7424 11.0455 43.2273 11.4318C42.7121 11.8106 42.3712 12.2879 42.2045 12.8636L37.7273 12.5C37.9545 11.4394 38.4015 10.5227 39.0682 9.75C39.7348 8.9697 40.5947 8.37121 41.6477 7.95454C42.7083 7.5303 43.9356 7.31818 45.3295 7.31818C46.2992 7.31818 47.2273 7.43182 48.1136 7.65909C49.0076 7.88636 49.7992 8.23864 50.4886 8.71591C51.1856 9.19318 51.7348 9.80682 52.1364 10.5568C52.5379 11.2992 52.7386 12.1894 52.7386 13.2273V25H48.1477V22.5795H48.0114C47.7311 23.125 47.3561 23.6061 46.8864 24.0227C46.4167 24.4318 45.8523 24.7538 45.1932 24.9886C44.5341 25.2159 43.7727 25.3295 42.9091 25.3295ZM44.2955 21.9886C45.0076 21.9886 45.6364 21.8485 46.1818 21.5682C46.7273 21.2803 47.1553 20.8939 47.4659 20.4091C47.7765 19.9242 47.9318 19.375 47.9318 18.7614V16.9091C47.7803 17.0076 47.572 17.0985 47.3068 17.1818C47.0492 17.2576 46.7576 17.3295 46.4318 17.3977C46.1061 17.4583 45.7803 17.5152 45.4545 17.5682C45.1288 17.6136 44.8333 17.6553 44.5682 17.6932C44 17.7765 43.5038 17.9091 43.0795 18.0909C42.6553 18.2727 42.3258 18.5189 42.0909 18.8295C41.8561 19.1326 41.7386 19.5114 41.7386 19.9659C41.7386 20.625 41.9773 21.1288 42.4545 21.4773C42.9394 21.8182 43.553 21.9886 44.2955 21.9886ZM56.4943 25V7.54545H61.108V10.625H61.3125C61.6761 9.60227 62.2822 8.79545 63.1307 8.20454C63.9792 7.61364 64.9943 7.31818 66.1761 7.31818C67.3731 7.31818 68.392 7.61742 69.233 8.21591C70.0739 8.80682 70.6345 9.60985 70.9148 10.625H71.0966C71.4527 9.625 72.0966 8.82576 73.0284 8.22727C73.9678 7.62121 75.0777 7.31818 76.358 7.31818C77.9867 7.31818 79.3087 7.83712 80.3239 8.875C81.3466 9.9053 81.858 11.3674 81.858 13.2614V25H77.0284V14.2159C77.0284 13.2462 76.7708 12.5189 76.2557 12.0341C75.7405 11.5492 75.0966 11.3068 74.3239 11.3068C73.4451 11.3068 72.7595 11.5871 72.267 12.1477C71.7746 12.7008 71.5284 13.4318 71.5284 14.3409V25H66.8352V14.1136C66.8352 13.2576 66.589 12.5758 66.0966 12.0682C65.6117 11.5606 64.9716 11.3068 64.1761 11.3068C63.6383 11.3068 63.1534 11.4432 62.7216 11.7159C62.2973 11.9811 61.9602 12.3561 61.7102 12.8409C61.4602 13.3182 61.3352 13.8788 61.3352 14.5227V25H56.4943ZM113.713 9.875H108.736C108.645 9.23106 108.459 8.65909 108.179 8.15909C107.899 7.65151 107.539 7.2197 107.099 6.86364C106.66 6.50757 106.152 6.23485 105.577 6.04545C105.009 5.85606 104.391 5.76136 103.724 5.76136C102.52 5.76136 101.471 6.06061 100.577 6.65909C99.6828 7.25 98.9896 8.11364 98.4972 9.25C98.0047 10.3788 97.7585 11.75 97.7585 13.3636C97.7585 15.0227 98.0047 16.4167 98.4972 17.5455C98.9972 18.6742 99.6941 19.5265 100.588 20.1023C101.482 20.678 102.516 20.9659 103.69 20.9659C104.349 20.9659 104.959 20.8788 105.52 20.7045C106.088 20.5303 106.592 20.2765 107.031 19.9432C107.471 19.6023 107.834 19.1894 108.122 18.7045C108.418 18.2197 108.622 17.6667 108.736 17.0455L113.713 17.0682C113.584 18.1364 113.262 19.1667 112.747 20.1591C112.24 21.1439 111.554 22.0265 110.69 22.8068C109.834 23.5795 108.812 24.1932 107.622 24.6477C106.44 25.0947 105.103 25.3182 103.611 25.3182C101.535 25.3182 99.679 24.8485 98.0426 23.9091C96.4138 22.9697 95.1259 21.6098 94.179 19.8295C93.2396 18.0492 92.7699 15.8939 92.7699 13.3636C92.7699 10.8258 93.2472 8.66667 94.2017 6.88636C95.1563 5.10606 96.4517 3.75 98.0881 2.81818C99.7244 1.87879 101.565 1.40909 103.611 1.40909C104.959 1.40909 106.209 1.59848 107.361 1.97727C108.52 2.35606 109.546 2.90909 110.44 3.63636C111.334 4.35606 112.062 5.23864 112.622 6.28409C113.19 7.32954 113.554 8.52651 113.713 9.875ZM125.037 25.3409C123.272 25.3409 121.745 24.9659 120.457 24.2159C119.177 23.4583 118.188 22.4053 117.491 21.0568C116.795 19.7008 116.446 18.1288 116.446 16.3409C116.446 14.5379 116.795 12.9621 117.491 11.6136C118.188 10.2576 119.177 9.20454 120.457 8.45454C121.745 7.69697 123.272 7.31818 125.037 7.31818C126.802 7.31818 128.325 7.69697 129.605 8.45454C130.893 9.20454 131.885 10.2576 132.582 11.6136C133.279 12.9621 133.628 14.5379 133.628 16.3409C133.628 18.1288 133.279 19.7008 132.582 21.0568C131.885 22.4053 130.893 23.4583 129.605 24.2159C128.325 24.9659 126.802 25.3409 125.037 25.3409ZM125.06 21.5909C125.863 21.5909 126.533 21.3636 127.071 20.9091C127.609 20.447 128.014 19.8182 128.287 19.0227C128.567 18.2273 128.707 17.322 128.707 16.3068C128.707 15.2917 128.567 14.3864 128.287 13.5909C128.014 12.7955 127.609 12.1667 127.071 11.7045C126.533 11.2424 125.863 11.0114 125.06 11.0114C124.249 11.0114 123.567 11.2424 123.014 11.7045C122.469 12.1667 122.056 12.7955 121.776 13.5909C121.503 14.3864 121.366 15.2917 121.366 16.3068C121.366 17.322 121.503 18.2273 121.776 19.0227C122.056 19.8182 122.469 20.447 123.014 20.9091C123.567 21.3636 124.249 21.5909 125.06 21.5909ZM144.662 25.3409C142.897 25.3409 141.37 24.9659 140.082 24.2159C138.802 23.4583 137.813 22.4053 137.116 21.0568C136.42 19.7008 136.071 18.1288 136.071 16.3409C136.071 14.5379 136.42 12.9621 137.116 11.6136C137.813 10.2576 138.802 9.20454 140.082 8.45454C141.37 7.69697 142.897 7.31818 144.662 7.31818C146.427 7.31818 147.95 7.69697 149.23 8.45454C150.518 9.20454 151.51 10.2576 152.207 11.6136C152.904 12.9621 153.253 14.5379 153.253 16.3409C153.253 18.1288 152.904 19.7008 152.207 21.0568C151.51 22.4053 150.518 23.4583 149.23 24.2159C147.95 24.9659 146.427 25.3409 144.662 25.3409ZM144.685 21.5909C145.488 21.5909 146.158 21.3636 146.696 20.9091C147.234 20.447 147.639 19.8182 147.912 19.0227C148.192 18.2273 148.332 17.322 148.332 16.3068C148.332 15.2917 148.192 14.3864 147.912 13.5909C147.639 12.7955 147.234 12.1667 146.696 11.7045C146.158 11.2424 145.488 11.0114 144.685 11.0114C143.874 11.0114 143.192 11.2424 142.639 11.7045C142.094 12.1667 141.681 12.7955 141.401 13.5909C141.128 14.3864 140.991 15.2917 140.991 16.3068C140.991 17.322 141.128 18.2273 141.401 19.0227C141.681 19.8182 142.094 20.447 142.639 20.9091C143.192 21.3636 143.874 21.5909 144.685 21.5909ZM160.787 19.9773L160.798 14.1705H161.503L167.094 7.54545H172.651L165.139 16.3182H163.991L160.787 19.9773ZM156.401 25V1.72727H161.241V25H156.401ZM167.31 25L162.173 17.3977L165.401 13.9773L172.98 25H167.31ZM175.026 25V7.54545H179.866V25H175.026ZM177.457 5.29545C176.738 5.29545 176.12 5.05682 175.605 4.57954C175.098 4.0947 174.844 3.51515 174.844 2.84091C174.844 2.17424 175.098 1.60227 175.605 1.125C176.12 0.640151 176.738 0.397726 177.457 0.397726C178.177 0.397726 178.791 0.640151 179.298 1.125C179.813 1.60227 180.071 2.17424 180.071 2.84091C180.071 3.51515 179.813 4.0947 179.298 4.57954C178.791 5.05682 178.177 5.29545 177.457 5.29545ZM191.699 25.3409C189.903 25.3409 188.358 24.9773 187.062 24.25C185.775 23.5152 184.782 22.4773 184.085 21.1364C183.388 19.7879 183.04 18.1932 183.04 16.3523C183.04 14.5568 183.388 12.9811 184.085 11.625C184.782 10.2689 185.763 9.21212 187.028 8.45454C188.301 7.69697 189.794 7.31818 191.506 7.31818C192.657 7.31818 193.729 7.50379 194.722 7.875C195.722 8.23864 196.593 8.78788 197.335 9.52273C198.085 10.2576 198.669 11.1818 199.085 12.2955C199.502 13.4015 199.71 14.697 199.71 16.1818V17.5114H184.972V14.5114H195.153C195.153 13.8144 195.002 13.197 194.699 12.6591C194.396 12.1212 193.975 11.7008 193.438 11.3977C192.907 11.0871 192.29 10.9318 191.585 10.9318C190.85 10.9318 190.199 11.1023 189.631 11.4432C189.07 11.7765 188.631 12.2273 188.312 12.7955C187.994 13.3561 187.831 13.9811 187.824 14.6705V17.5227C187.824 18.3864 187.983 19.1326 188.301 19.7614C188.627 20.3902 189.085 20.875 189.676 21.2159C190.267 21.5568 190.968 21.7273 191.778 21.7273C192.316 21.7273 192.809 21.6515 193.256 21.5C193.703 21.3485 194.085 21.1212 194.403 20.8182C194.722 20.5152 194.964 20.1439 195.131 19.7045L199.608 20C199.381 21.0758 198.915 22.0152 198.21 22.8182C197.513 23.6136 196.612 24.2348 195.506 24.6818C194.407 25.1212 193.138 25.3409 191.699 25.3409ZM217.392 12.5227L212.96 12.7955C212.884 12.4167 212.722 12.0758 212.472 11.7727C212.222 11.4621 211.892 11.2159 211.483 11.0341C211.081 10.8447 210.6 10.75 210.04 10.75C209.29 10.75 208.657 10.9091 208.142 11.2273C207.627 11.5379 207.369 11.9545 207.369 12.4773C207.369 12.8939 207.536 13.2462 207.869 13.5341C208.203 13.822 208.775 14.053 209.585 14.2273L212.744 14.8636C214.441 15.2121 215.706 15.7727 216.54 16.5455C217.373 17.3182 217.79 18.3333 217.79 19.5909C217.79 20.7348 217.453 21.7386 216.778 22.6023C216.112 23.4659 215.195 24.1402 214.028 24.625C212.869 25.1023 211.532 25.3409 210.017 25.3409C207.706 25.3409 205.866 24.8598 204.494 23.8977C203.131 22.928 202.331 21.6098 202.097 19.9432L206.858 19.6932C207.002 20.3977 207.35 20.9356 207.903 21.3068C208.456 21.6705 209.165 21.8523 210.028 21.8523C210.877 21.8523 211.559 21.6894 212.074 21.3636C212.597 21.0303 212.862 20.6023 212.869 20.0795C212.862 19.6402 212.676 19.2803 212.312 19C211.949 18.7121 211.388 18.4924 210.631 18.3409L207.608 17.7386C205.903 17.3977 204.634 16.8068 203.801 15.9659C202.975 15.125 202.562 14.053 202.562 12.75C202.562 11.6288 202.866 10.6629 203.472 9.85227C204.085 9.04167 204.945 8.41667 206.051 7.97727C207.165 7.53788 208.468 7.31818 209.96 7.31818C212.165 7.31818 213.9 7.78409 215.165 8.71591C216.438 9.64773 217.18 10.9167 217.392 12.5227Z" fill="#2F2F2F"/>
</svg>
